<mxfile host="app.diagrams.net" modified="2023-02-28T08:39:19.850Z" agent="5.0 (X11)" etag="aUk7rkhEy294z3Vp-xeY" version="20.8.23" type="github">
  <diagram name="第 1 页" id="KfPAEcnxHpS_kiQm6wuY">
    <mxGraphModel dx="476" dy="256" grid="1" gridSize="10" guides="1" tooltips="1" connect="1" arrows="1" fold="1" page="1" pageScale="1" pageWidth="827" pageHeight="1169" math="0" shadow="0">
      <root>
        <mxCell id="0" />
        <mxCell id="1" parent="0" />
        <mxCell id="pGtCdHJ7rIdYiGummvpX-7" value="" style="endArrow=classic;html=1;rounded=0;fontSize=17;entryX=0.5;entryY=1;entryDx=0;entryDy=0;exitX=0.5;exitY=0;exitDx=0;exitDy=0;" edge="1" parent="1" source="pGtCdHJ7rIdYiGummvpX-8" target="pGtCdHJ7rIdYiGummvpX-2">
          <mxGeometry width="50" height="50" relative="1" as="geometry">
            <mxPoint x="120" y="280" as="sourcePoint" />
            <mxPoint x="140" y="260" as="targetPoint" />
          </mxGeometry>
        </mxCell>
        <mxCell id="pGtCdHJ7rIdYiGummvpX-8" value="&lt;font face=&quot;Courier New&quot;&gt;Free Pointer&lt;/font&gt;" style="text;html=1;strokeColor=none;fillColor=none;align=center;verticalAlign=middle;whiteSpace=wrap;rounded=0;fontSize=17;" vertex="1" parent="1">
          <mxGeometry x="80" y="250" width="140" height="30" as="geometry" />
        </mxCell>
        <mxCell id="pGtCdHJ7rIdYiGummvpX-10" value="" style="group" vertex="1" connectable="0" parent="1">
          <mxGeometry x="80" y="210" width="190" height="30" as="geometry" />
        </mxCell>
        <mxCell id="pGtCdHJ7rIdYiGummvpX-6" value="&lt;font style=&quot;font-size: 30px;&quot;&gt;&lt;font style=&quot;font-size: 30px;&quot;&gt;.......&lt;/font&gt;&lt;/font&gt;" style="text;html=1;strokeColor=none;fillColor=none;align=center;verticalAlign=middle;whiteSpace=wrap;rounded=0;" vertex="1" parent="pGtCdHJ7rIdYiGummvpX-10">
          <mxGeometry x="115.58333333333333" y="7.5" width="47.5" height="15" as="geometry" />
        </mxCell>
        <mxCell id="pGtCdHJ7rIdYiGummvpX-5" value="" style="rounded=0;whiteSpace=wrap;html=1;" vertex="1" parent="pGtCdHJ7rIdYiGummvpX-10">
          <mxGeometry width="190" height="30" as="geometry" />
        </mxCell>
        <mxCell id="pGtCdHJ7rIdYiGummvpX-1" value="&lt;font style=&quot;font-size: 13px;&quot;&gt;&lt;font style=&quot;font-size: 14px;&quot;&gt;&lt;font style=&quot;font-size: 15px;&quot;&gt;&lt;font style=&quot;font-size: 16px;&quot;&gt;&lt;font style=&quot;font-size: 17px;&quot;&gt;1&lt;/font&gt;&lt;/font&gt;&lt;/font&gt;&lt;/font&gt;&lt;/font&gt;" style="rounded=0;whiteSpace=wrap;html=1;" vertex="1" parent="pGtCdHJ7rIdYiGummvpX-10">
          <mxGeometry width="31.666666666666664" height="30" as="geometry" />
        </mxCell>
        <mxCell id="pGtCdHJ7rIdYiGummvpX-2" value="&lt;font style=&quot;font-size: 13px;&quot;&gt;&lt;font style=&quot;font-size: 14px;&quot;&gt;&lt;font style=&quot;font-size: 15px;&quot;&gt;&lt;font style=&quot;font-size: 16px;&quot;&gt;&lt;font style=&quot;font-size: 17px;&quot;&gt;0&lt;/font&gt;&lt;/font&gt;&lt;/font&gt;&lt;/font&gt;&lt;/font&gt;" style="rounded=0;whiteSpace=wrap;html=1;" vertex="1" parent="pGtCdHJ7rIdYiGummvpX-10">
          <mxGeometry x="31.666666666666664" width="31.666666666666664" height="30" as="geometry" />
        </mxCell>
        <mxCell id="pGtCdHJ7rIdYiGummvpX-3" value="&lt;font style=&quot;font-size: 13px;&quot;&gt;&lt;font style=&quot;font-size: 14px;&quot;&gt;&lt;font style=&quot;font-size: 15px;&quot;&gt;&lt;font style=&quot;font-size: 16px;&quot;&gt;&lt;font style=&quot;font-size: 17px;&quot;&gt;1&lt;/font&gt;&lt;/font&gt;&lt;/font&gt;&lt;/font&gt;&lt;/font&gt;" style="rounded=0;whiteSpace=wrap;html=1;" vertex="1" parent="pGtCdHJ7rIdYiGummvpX-10">
          <mxGeometry x="63.33333333333333" width="31.666666666666664" height="30" as="geometry" />
        </mxCell>
        <mxCell id="pGtCdHJ7rIdYiGummvpX-9" value="&lt;font face=&quot;Courier New&quot;&gt;FreeList&lt;/font&gt;" style="text;html=1;strokeColor=none;fillColor=none;align=center;verticalAlign=middle;whiteSpace=wrap;rounded=0;fontSize=17;" vertex="1" parent="pGtCdHJ7rIdYiGummvpX-10">
          <mxGeometry x="113.33000000000001" width="60" height="30" as="geometry" />
        </mxCell>
      </root>
    </mxGraphModel>
  </diagram>
</mxfile>
